<svg xmlns="http://www.w3.org/2000/svg" xmlns:xlink="http://www.w3.org/1999/xlink" zoomAndPan="magnify" preserveAspectRatio="xMidYMid meet" version="1.0" viewBox="-37.5 -7.5 450 90"><defs><g/><clipPath id="fdd9cc90ff"><path d="M 83.886719 55.53125 L 271 55.53125 L 271 65.28125 L 83.886719 65.28125 Z M 83.886719 55.53125 " clip-rule="nonzero"/></clipPath><clipPath id="935785f6c4"><path d="M 270 12 L 292 12 L 292 61 L 270 61 Z M 270 12 " clip-rule="nonzero"/></clipPath><clipPath id="2a43e5e387"><path d="M 255.132812 23.890625 L 292.230469 7.640625 L 308.179688 44.050781 L 271.082031 60.300781 Z M 255.132812 23.890625 " clip-rule="nonzero"/></clipPath><clipPath id="ba60148ccc"><path d="M 255.132812 23.890625 L 292.230469 7.640625 L 308.179688 44.050781 L 271.082031 60.300781 Z M 255.132812 23.890625 " clip-rule="nonzero"/></clipPath><clipPath id="9f89a1b725"><path d="M 255.132812 23.890625 L 292.230469 7.640625 L 308.179688 44.050781 L 271.082031 60.300781 Z M 255.132812 23.890625 " clip-rule="nonzero"/></clipPath><clipPath id="cd161ff51c"><path d="M 255.890625 25.40625 L 290.546875 10.226562 L 305.824219 45.109375 L 271.167969 60.289062 Z M 255.890625 25.40625 " clip-rule="nonzero"/></clipPath><clipPath id="888043126a"><path d="M 285 8 L 295 8 L 295 36 L 285 36 Z M 285 8 " clip-rule="nonzero"/></clipPath><clipPath id="a28f11aa4d"><path d="M 255.132812 23.890625 L 292.230469 7.640625 L 308.179688 44.050781 L 271.082031 60.300781 Z M 255.132812 23.890625 " clip-rule="nonzero"/></clipPath><clipPath id="28fbb98b8d"><path d="M 255.132812 23.890625 L 292.230469 7.640625 L 308.179688 44.050781 L 271.082031 60.300781 Z M 255.132812 23.890625 " clip-rule="nonzero"/></clipPath><clipPath id="95f539dcd9"><path d="M 255.132812 23.890625 L 292.230469 7.640625 L 308.179688 44.050781 L 271.082031 60.300781 Z M 255.132812 23.890625 " clip-rule="nonzero"/></clipPath></defs><rect x="-37.5" width="450" fill="#ffffff" y="-7.5" height="89.999996" fill-opacity="1"/><rect x="-37.5" width="450" fill="#ffffff" y="-7.5" height="89.999996" fill-opacity="1"/><rect x="-37.5" width="450" fill="#ead2c3" y="-7.5" height="89.999996" fill-opacity="1"/><g clip-path="url(#fdd9cc90ff)"><path fill="#000000" d="M 268.648438 60.699219 C 258.027344 60.480469 247.40625 60.320312 236.785156 60.214844 C 237.578125 60.035156 238.265625 59.734375 238.730469 59.234375 C 239.015625 58.925781 238.863281 58.460938 238.722656 58.140625 C 238.609375 57.875 238.339844 57.277344 237.839844 57.191406 C 228.476562 55.59375 218.636719 55.71875 209.015625 55.804688 C 198.972656 55.894531 188.9375 56.144531 178.914062 56.554688 C 158.914062 57.367188 139.097656 58.9375 119.316406 60.914062 C 113.710938 61.472656 108.105469 62.023438 102.496094 62.558594 C 99.789062 62.816406 97.078125 63.0625 94.363281 63.289062 C 92.953125 63.40625 91.542969 63.53125 90.132812 63.652344 C 89.433594 63.710938 88.734375 63.78125 88.03125 63.84375 C 87.796875 63.867188 87.5625 63.890625 87.328125 63.910156 C 86.921875 63.945312 86.515625 63.976562 86.109375 64.007812 C 85.773438 64.085938 85.441406 64.171875 85.117188 64.265625 C 84.757812 64.339844 84.175781 64.492188 83.992188 64.714844 C 83.902344 64.828125 83.894531 64.902344 83.996094 64.9375 C 83.992188 64.9375 83.988281 64.941406 83.984375 64.941406 C 84.417969 65.011719 84.726562 65.101562 85.175781 65.097656 C 85.425781 65.097656 85.671875 65.085938 85.921875 65.082031 C 86.542969 65.066406 87.167969 65.050781 87.789062 65.035156 C 88.027344 65.03125 88.261719 65.019531 88.5 65.011719 C 89.464844 65.089844 90.429688 65.179688 91.386719 65.230469 C 91.484375 65.238281 91.285156 65.003906 91.164062 64.992188 C 90.957031 64.96875 90.75 64.949219 90.546875 64.929688 C 90.992188 64.910156 91.441406 64.890625 91.890625 64.875 C 94.476562 64.773438 97.0625 64.578125 99.640625 64.398438 C 104.734375 64.050781 109.808594 63.613281 114.882812 63.171875 C 124.972656 62.289062 135.042969 61.34375 145.164062 60.605469 C 165.1875 59.144531 185.300781 58.230469 205.457031 57.96875 C 213.835938 57.859375 222.464844 57.625 230.832031 58.339844 C 228.386719 58.3125 225.941406 58.296875 223.492188 58.3125 C 217.796875 58.34375 212.101562 58.492188 206.417969 58.734375 C 196.09375 59.167969 185.8125 59.898438 175.558594 60.75 C 167.886719 61.148438 160.246094 61.765625 152.714844 62.757812 C 151.886719 62.867188 152.628906 64.960938 153.539062 64.875 C 159.984375 64.261719 166.441406 63.65625 172.914062 63.105469 C 181.507812 62.566406 190.144531 62.316406 198.789062 62.21875 C 213.980469 62.046875 229.1875 62.175781 244.375 62.355469 C 250.089844 62.421875 255.800781 62.503906 261.511719 62.605469 C 261.59375 62.851562 261.75 63.027344 261.972656 63.019531 C 264.769531 62.910156 267.578125 62.910156 270.375 62.769531 C 271.378906 62.71875 269.628906 60.71875 268.648438 60.699219 " fill-opacity="1" fill-rule="nonzero"/></g><g clip-path="url(#935785f6c4)"><g clip-path="url(#2a43e5e387)"><g clip-path="url(#ba60148ccc)"><g clip-path="url(#9f89a1b725)"><g clip-path="url(#cd161ff51c)"><path fill="#000000" d="M 290.796875 13.058594 L 288.695312 12.234375 C 287.988281 11.960938 287.199219 12.308594 286.921875 13.011719 L 271.890625 51.5625 L 271.804688 52.046875 L 270.886719 58.78125 L 270.816406 59.175781 C 270.753906 59.523438 270.945312 59.871094 271.277344 60 C 271.609375 60.128906 271.988281 60.007812 272.179688 59.707031 L 272.394531 59.375 L 276.273438 53.796875 L 276.539062 53.382812 L 291.574219 14.832031 C 291.847656 14.128906 291.5 13.335938 290.796875 13.058594 " fill-opacity="1" fill-rule="nonzero"/></g></g></g></g></g><g clip-path="url(#888043126a)"><g clip-path="url(#a28f11aa4d)"><g clip-path="url(#28fbb98b8d)"><g clip-path="url(#95f539dcd9)"><path fill="#000000" d="M 294.011719 12.984375 L 291.238281 11.898438 L 292.039062 9.84375 C 292.226562 9.359375 291.988281 8.816406 291.507812 8.628906 L 291.167969 8.496094 C 290.6875 8.304688 290.144531 8.542969 289.957031 9.027344 L 288.789062 12.015625 C 290.875 12.828125 290.402344 12.667969 292.488281 13.480469 C 292.929688 13.652344 293.167969 14.109375 292.996094 14.554688 L 285.160156 34.636719 C 285.113281 34.761719 285.164062 34.902344 285.277344 34.972656 C 285.390625 35.039062 285.542969 35.011719 285.625 34.910156 C 287.039062 33.179688 288.179688 31.238281 288.988281 29.15625 L 294.6875 14.535156 C 294.929688 13.921875 294.625 13.226562 294.011719 12.984375 " fill-opacity="1" fill-rule="nonzero"/></g></g></g></g><g fill="#000000" fill-opacity="1"><g transform="translate(134.067203, 44.681118)"><g><path d="M 10.078125 0.78125 C 8.398438 0.78125 6.875 0.457031 5.5 -0.1875 C 4.125 -0.84375 3.007812 -1.75 2.15625 -2.90625 C 1.300781 -4.070312 0.789062 -5.394531 0.625 -6.875 L 3.15625 -7.34375 C 3.238281 -6.207031 3.582031 -5.195312 4.1875 -4.3125 C 4.800781 -3.4375 5.617188 -2.75 6.640625 -2.25 C 7.671875 -1.757812 8.816406 -1.515625 10.078125 -1.515625 C 11.785156 -1.515625 13.132812 -1.914062 14.125 -2.71875 C 15.125 -3.53125 15.625 -4.535156 15.625 -5.734375 C 15.625 -6.703125 15.257812 -7.484375 14.53125 -8.078125 C 13.8125 -8.679688 12.65625 -9.171875 11.0625 -9.546875 L 7.53125 -10.359375 C 5.59375 -10.804688 4.15625 -11.484375 3.21875 -12.390625 C 2.289062 -13.304688 1.828125 -14.488281 1.828125 -15.9375 C 1.828125 -17.257812 2.132812 -18.421875 2.75 -19.421875 C 3.375 -20.421875 4.238281 -21.203125 5.34375 -21.765625 C 6.445312 -22.335938 7.742188 -22.625 9.234375 -22.625 C 10.578125 -22.625 11.785156 -22.363281 12.859375 -21.84375 C 13.941406 -21.332031 14.832031 -20.613281 15.53125 -19.6875 C 16.226562 -18.757812 16.679688 -17.6875 16.890625 -16.46875 L 14.453125 -15.84375 C 14.304688 -17.1875 13.753906 -18.269531 12.796875 -19.09375 C 11.847656 -19.914062 10.671875 -20.328125 9.265625 -20.328125 C 7.773438 -20.328125 6.59375 -19.953125 5.71875 -19.203125 C 4.84375 -18.453125 4.40625 -17.507812 4.40625 -16.375 C 4.40625 -15.4375 4.710938 -14.6875 5.328125 -14.125 C 5.953125 -13.570312 6.957031 -13.140625 8.34375 -12.828125 L 11.875 -12.03125 C 16.09375 -11.101562 18.203125 -9.140625 18.203125 -6.140625 C 18.203125 -4.816406 17.863281 -3.628906 17.1875 -2.578125 C 16.519531 -1.535156 15.582031 -0.710938 14.375 -0.109375 C 13.164062 0.484375 11.734375 0.78125 10.078125 0.78125 Z M 10.078125 0.78125 "/></g></g></g><g fill="#000000" fill-opacity="1"><g transform="translate(152.88375, 44.681118)"><g><path d="M 9.203125 0.625 C 7.585938 0.625 6.15625 0.265625 4.90625 -0.453125 C 3.65625 -1.179688 2.679688 -2.179688 1.984375 -3.453125 C 1.285156 -4.722656 0.9375 -6.175781 0.9375 -7.8125 C 0.9375 -9.46875 1.265625 -10.929688 1.921875 -12.203125 C 2.578125 -13.472656 3.492188 -14.46875 4.671875 -15.1875 C 5.859375 -15.914062 7.210938 -16.28125 8.734375 -16.28125 C 9.921875 -16.28125 11.007812 -16.050781 12 -15.59375 C 12.988281 -15.132812 13.828125 -14.503906 14.515625 -13.703125 C 15.210938 -12.898438 15.6875 -11.96875 15.9375 -10.90625 L 13.640625 -10.390625 C 13.328125 -11.523438 12.722656 -12.425781 11.828125 -13.09375 C 10.929688 -13.769531 9.898438 -14.109375 8.734375 -14.109375 C 7.703125 -14.109375 6.773438 -13.84375 5.953125 -13.3125 C 5.128906 -12.789062 4.476562 -12.054688 4 -11.109375 C 3.519531 -10.171875 3.28125 -9.070312 3.28125 -7.8125 C 3.28125 -6.570312 3.539062 -5.472656 4.0625 -4.515625 C 4.582031 -3.566406 5.285156 -2.828125 6.171875 -2.296875 C 7.054688 -1.773438 8.066406 -1.515625 9.203125 -1.515625 C 10.160156 -1.515625 11.035156 -1.707031 11.828125 -2.09375 C 12.617188 -2.476562 13.28125 -3.007812 13.8125 -3.6875 C 14.351562 -4.375 14.695312 -5.160156 14.84375 -6.046875 L 17.140625 -5.578125 C 16.953125 -4.378906 16.476562 -3.3125 15.71875 -2.375 C 14.96875 -1.445312 14.03125 -0.710938 12.90625 -0.171875 C 11.78125 0.359375 10.546875 0.625 9.203125 0.625 Z M 9.203125 0.625 "/></g></g></g><g fill="#000000" fill-opacity="1"><g transform="translate(170.646321, 44.681118)"><g><path d="M 8.34375 -16.3125 C 9.6875 -16.3125 10.785156 -15.882812 11.640625 -15.03125 C 12.492188 -14.1875 12.992188 -12.976562 13.140625 -11.40625 L 11.09375 -10.71875 C 10.96875 -11.820312 10.628906 -12.660156 10.078125 -13.234375 C 9.535156 -13.816406 8.84375 -14.109375 8 -14.109375 C 6.738281 -14.109375 5.738281 -13.617188 5 -12.640625 C 4.269531 -11.671875 3.90625 -10.332031 3.90625 -8.625 L 3.90625 0 L 1.546875 0 L 1.546875 -15.65625 L 3.5625 -15.65625 L 3.78125 -13.203125 L 3.8125 -13.203125 C 4.25 -14.148438 4.863281 -14.90625 5.65625 -15.46875 C 6.445312 -16.03125 7.34375 -16.3125 8.34375 -16.3125 Z M 8.34375 -16.3125 "/></g></g></g><g fill="#000000" fill-opacity="1"><g transform="translate(184.409993, 44.681118)"><g><path d="M 2.96875 -18.6875 C 2.457031 -18.6875 2.039062 -18.847656 1.71875 -19.171875 C 1.394531 -19.492188 1.234375 -19.910156 1.234375 -20.421875 C 1.234375 -20.941406 1.394531 -21.359375 1.71875 -21.671875 C 2.039062 -21.984375 2.457031 -22.140625 2.96875 -22.140625 C 3.488281 -22.140625 3.914062 -21.984375 4.25 -21.671875 C 4.582031 -21.359375 4.75 -20.941406 4.75 -20.421875 C 4.75 -19.910156 4.582031 -19.492188 4.25 -19.171875 C 3.914062 -18.847656 3.488281 -18.6875 2.96875 -18.6875 Z M 1.765625 0 L 1.765625 -15.65625 L 4.125 -15.65625 L 4.125 0 Z M 1.765625 0 "/></g></g></g><g fill="#000000" fill-opacity="1"><g transform="translate(190.39285, 44.681118)"><g><path d="M 1.546875 6.515625 L 1.546875 -15.65625 L 3.59375 -15.65625 L 3.84375 -12.953125 L 3.875 -12.953125 C 4.53125 -13.992188 5.378906 -14.804688 6.421875 -15.390625 C 7.472656 -15.984375 8.660156 -16.28125 9.984375 -16.28125 C 11.515625 -16.28125 12.878906 -15.910156 14.078125 -15.171875 C 15.273438 -14.441406 16.21875 -13.441406 16.90625 -12.171875 C 17.601562 -10.898438 17.953125 -9.445312 17.953125 -7.8125 C 17.953125 -6.195312 17.601562 -4.753906 16.90625 -3.484375 C 16.21875 -2.210938 15.28125 -1.207031 14.09375 -0.46875 C 12.90625 0.257812 11.546875 0.625 10.015625 0.625 C 8.710938 0.625 7.539062 0.34375 6.5 -0.21875 C 5.46875 -0.789062 4.613281 -1.585938 3.9375 -2.609375 L 3.90625 -2.609375 L 3.90625 6.515625 Z M 9.703125 -1.546875 C 10.835938 -1.546875 11.84375 -1.820312 12.71875 -2.375 C 13.601562 -2.9375 14.296875 -3.6875 14.796875 -4.625 C 15.304688 -5.570312 15.5625 -6.632812 15.5625 -7.8125 C 15.5625 -9.03125 15.304688 -10.109375 14.796875 -11.046875 C 14.296875 -11.992188 13.601562 -12.738281 12.71875 -13.28125 C 11.84375 -13.832031 10.835938 -14.109375 9.703125 -14.109375 C 8.585938 -14.109375 7.582031 -13.828125 6.6875 -13.265625 C 5.800781 -12.710938 5.101562 -11.960938 4.59375 -11.015625 C 4.09375 -10.078125 3.84375 -9.007812 3.84375 -7.8125 C 3.84375 -6.632812 4.09375 -5.570312 4.59375 -4.625 C 5.101562 -3.6875 5.800781 -2.9375 6.6875 -2.375 C 7.582031 -1.820312 8.585938 -1.546875 9.703125 -1.546875 Z M 9.703125 -1.546875 "/></g></g></g><g fill="#000000" fill-opacity="1"><g transform="translate(209.271396, 44.681118)"><g><path d="M 8.375 0.625 C 6.90625 0.625 5.710938 0.175781 4.796875 -0.71875 C 3.890625 -1.625 3.4375 -2.789062 3.4375 -4.21875 L 3.4375 -13.703125 L 0 -13.703125 L 0 -15.65625 L 3.4375 -15.65625 L 3.4375 -20.3125 L 5.796875 -20.859375 L 5.796875 -15.65625 L 12.796875 -15.65625 L 12.796875 -13.703125 L 5.796875 -13.703125 L 5.796875 -4.46875 C 5.796875 -3.570312 6.046875 -2.835938 6.546875 -2.265625 C 7.054688 -1.703125 7.738281 -1.421875 8.59375 -1.421875 C 9.375 -1.421875 10.085938 -1.691406 10.734375 -2.234375 C 11.390625 -2.785156 11.789062 -3.570312 11.9375 -4.59375 L 13.859375 -3.78125 C 13.710938 -2.875 13.375 -2.085938 12.84375 -1.421875 C 12.320312 -0.765625 11.664062 -0.257812 10.875 0.09375 C 10.09375 0.445312 9.257812 0.625 8.375 0.625 Z M 8.375 0.625 "/></g></g></g><g fill="#000000" fill-opacity="1"><g transform="translate(223.252062, 44.681118)"><g><path d="M 1.546875 0 L 1.546875 -22.78125 L 3.90625 -22.78125 L 3.90625 0 Z M 1.546875 0 "/></g></g></g><g fill="#000000" fill-opacity="1"><g transform="translate(228.707931, 44.681118)"><g><path d="M 7.5625 7.125 C 5.625 7.125 3.960938 6.75 2.578125 6 C 1.191406 5.257812 0.195312 4.269531 -0.40625 3.03125 L 1.609375 1.671875 C 2.109375 2.660156 2.867188 3.457031 3.890625 4.0625 C 4.910156 4.675781 6.113281 4.984375 7.5 4.984375 C 9.28125 4.984375 10.675781 4.515625 11.6875 3.578125 C 12.695312 2.640625 13.203125 1.34375 13.203125 -0.3125 L 13.203125 -1.671875 L 13.171875 -1.671875 C 12.640625 -0.765625 11.882812 -0.0546875 10.90625 0.453125 C 9.9375 0.972656 8.90625 1.234375 7.8125 1.234375 C 6.507812 1.234375 5.375 0.929688 4.40625 0.328125 C 3.445312 -0.265625 2.695312 -1.082031 2.15625 -2.125 C 1.625 -3.164062 1.359375 -4.347656 1.359375 -5.671875 L 1.359375 -15.65625 L 3.71875 -15.65625 L 3.71875 -5.671875 C 3.71875 -4.285156 4.101562 -3.144531 4.875 -2.25 C 5.65625 -1.351562 6.726562 -0.90625 8.09375 -0.90625 C 9 -0.90625 9.835938 -1.125 10.609375 -1.5625 C 11.390625 -2.007812 12.007812 -2.613281 12.46875 -3.375 C 12.9375 -4.144531 13.171875 -5.023438 13.171875 -6.015625 L 13.171875 -15.65625 L 15.53125 -15.65625 L 15.5625 -0.3125 C 15.5625 2.019531 14.84375 3.84375 13.40625 5.15625 C 11.96875 6.46875 10.019531 7.125 7.5625 7.125 Z M 7.5625 7.125 "/></g></g></g></svg>