<svg xmlns="http://www.w3.org/2000/svg" xmlns:xlink="http://www.w3.org/1999/xlink" width="500" zoomAndPan="magnify" viewBox="0 0 375 187.499995" height="250" preserveAspectRatio="xMidYMid meet" version="1.0"><defs><clipPath id="423397d35c"><path d="M 0.5 0 L 374.5 0 L 374.5 187 L 0.5 187 Z M 0.5 0 " clip-rule="nonzero"/></clipPath><clipPath id="ec35a19700"><path d="M 0.5 0 L 374.5 0 L 374.5 187 L 0.5 187 Z M 0.5 0 " clip-rule="nonzero"/></clipPath><clipPath id="0b555c7741"><path d="M 182.296875 -243.101562 L 227.78125 -207.214844 L 282.128906 -227.289062 L 314.300781 -179.105469 L 372.191406 -181.402344 L 387.894531 -125.632812 L 443.664062 -109.929688 L 441.367188 -52.035156 L 489.550781 -19.867188 L 469.476562 34.480469 L 505.363281 79.964844 L 469.476562 125.449219 L 489.550781 179.796875 L 441.367188 211.96875 L 443.664062 269.859375 L 387.894531 285.5625 L 372.191406 341.332031 L 314.300781 339.035156 L 282.128906 387.21875 L 227.78125 367.144531 L 182.296875 403.03125 L 136.8125 367.144531 L 82.464844 387.21875 L 50.292969 339.035156 L -7.597656 341.332031 L -23.300781 285.5625 L -79.070312 269.859375 L -76.773438 211.96875 L -124.957031 179.796875 L -104.882812 125.449219 L -140.769531 79.964844 L -104.882812 34.480469 L -124.957031 -19.867188 L -76.773438 -52.035156 L -79.070312 -109.929688 L -23.300781 -125.632812 L -7.597656 -181.402344 L 50.292969 -179.105469 L 82.464844 -227.289062 L 136.8125 -207.214844 Z M 182.296875 -243.101562 " clip-rule="nonzero"/></clipPath><clipPath id="967665ddfc"><path d="M 33.507812 3 L 341.6875 3 L 341.6875 186.988281 L 33.507812 186.988281 Z M 33.507812 3 " clip-rule="nonzero"/></clipPath></defs><g clip-path="url(#423397d35c)"><path fill="#ffffff" d="M 0.5 0 L 374.5 0 L 374.5 187 L 0.5 187 Z M 0.5 0 " fill-opacity="1" fill-rule="nonzero"/><path fill="#ffffff" d="M 0.5 0 L 374.5 0 L 374.5 187 L 0.5 187 Z M 0.5 0 " fill-opacity="1" fill-rule="nonzero"/></g><g clip-path="url(#ec35a19700)"><g clip-path="url(#0b555c7741)"><rect x="-37.5" width="450" fill="#f5e9e0" y="-18.749999" height="224.999994" fill-opacity="1"/></g></g><g clip-path="url(#967665ddfc)"><path fill="#da6220" d="M 339.652344 63.46875 L 272.320312 4.726562 C 270.78125 3.371094 268.648438 3.039062 266.742188 3.847656 C 264.757812 4.691406 263.546875 6.746094 263.546875 8.914062 L 263.546875 36.082031 L 157.632812 36.082031 C 155.648438 36.082031 154.070312 37.695312 154.070312 39.640625 C 154.070312 41.585938 155.6875 43.203125 157.632812 43.203125 L 270.707031 43.203125 L 270.707031 12.804688 L 333.335938 67.433594 L 270.707031 122.0625 L 270.707031 91.625 L 111.410156 91.625 L 111.410156 64.460938 C 111.410156 62.292969 110.199219 60.238281 108.21875 59.394531 C 106.34375 58.585938 104.214844 58.914062 102.636719 60.273438 L 35.308594 118.941406 C 34.167969 119.929688 33.507812 121.398438 33.507812 122.90625 C 33.507812 124.445312 34.167969 125.878906 35.308594 126.871094 L 102.636719 185.609375 C 103.628906 186.492188 104.839844 186.929688 106.089844 186.929688 C 106.75 186.929688 107.445312 186.785156 108.105469 186.527344 C 110.164062 185.683594 111.375 183.589844 111.375 181.386719 L 111.375 154.21875 L 217.289062 154.21875 C 219.273438 154.21875 220.851562 152.605469 220.851562 150.660156 C 220.851562 148.675781 219.234375 147.097656 217.289062 147.097656 L 104.214844 147.097656 L 104.214844 177.53125 L 41.65625 122.941406 L 104.289062 68.3125 L 104.289062 98.75 L 263.582031 98.75 L 263.582031 125.914062 C 263.582031 127.898438 265.015625 130.285156 266.886719 131.054688 C 267.546875 131.3125 268.210938 131.460938 268.90625 131.460938 C 270.15625 131.460938 271.367188 131.019531 272.359375 130.136719 L 339.6875 71.398438 C 340.828125 70.40625 341.488281 68.9375 341.488281 67.433594 C 341.449219 65.890625 340.789062 64.460938 339.652344 63.46875 Z M 339.652344 63.46875 " fill-opacity="1" fill-rule="nonzero"/></g></svg>