<svg xmlns="http://www.w3.org/2000/svg" xmlns:xlink="http://www.w3.org/1999/xlink" width="500" zoomAndPan="magnify" viewBox="0 0 375 374.999991" height="500" preserveAspectRatio="xMidYMid meet" version="1.0"><defs><clipPath id="ebcfda8454"><path d="M 170.714844 -90.894531 C 13.609375 -90.894531 -113.75 36.464844 -113.75 193.570312 C -113.75 350.675781 13.609375 478.035156 170.714844 478.035156 C 327.820312 478.035156 455.179688 350.675781 455.179688 193.570312 C 455.179688 36.464844 327.820312 -90.894531 170.714844 -90.894531 Z M 170.714844 -90.894531 " clip-rule="nonzero"/></clipPath><clipPath id="455775b698"><path d="M 9.464844 9.464844 L 365.714844 9.464844 L 365.714844 365.714844 L 9.464844 365.714844 Z M 9.464844 9.464844 " clip-rule="nonzero"/></clipPath></defs><rect x="-37.5" width="450" fill="#ffffff" y="-37.499999" height="449.999989" fill-opacity="1"/><rect x="-37.5" width="450" fill="#ffffff" y="-37.499999" height="449.999989" fill-opacity="1"/><g clip-path="url(#ebcfda8454)"><rect x="-37.5" width="450" fill="#f9f4f0" y="-37.499999" height="449.999989" fill-opacity="1"/></g><g clip-path="url(#455775b698)"><path fill="#925833" d="M 187.496094 9.464844 C 184.582031 9.464844 181.671875 9.535156 178.761719 9.679688 C 175.851562 9.820312 172.945312 10.035156 170.046875 10.320312 C 167.144531 10.605469 164.253906 10.964844 161.371094 11.390625 C 158.492188 11.820312 155.621094 12.316406 152.761719 12.886719 C 149.90625 13.453125 147.0625 14.089844 144.238281 14.800781 C 141.410156 15.507812 138.605469 16.285156 135.816406 17.128906 C 133.027344 17.976562 130.261719 18.890625 127.519531 19.871094 C 124.773438 20.851562 122.058594 21.902344 119.367188 23.015625 C 116.675781 24.132812 114.011719 25.3125 111.378906 26.558594 C 108.742188 27.804688 106.140625 29.113281 103.570312 30.484375 C 101.003906 31.859375 98.46875 33.296875 95.96875 34.792969 C 93.46875 36.289062 91.007812 37.847656 88.585938 39.46875 C 86.164062 41.085938 83.78125 42.765625 81.441406 44.5 C 79.101562 46.234375 76.804688 48.027344 74.554688 49.875 C 72.300781 51.722656 70.097656 53.625 67.9375 55.582031 C 65.777344 57.539062 63.667969 59.546875 61.609375 61.609375 C 59.546875 63.667969 57.539062 65.777344 55.582031 67.9375 C 53.625 70.097656 51.722656 72.300781 49.875 74.554688 C 48.027344 76.804688 46.234375 79.101562 44.5 81.441406 C 42.765625 83.78125 41.085938 86.164062 39.46875 88.585938 C 37.847656 91.007812 36.289062 93.46875 34.792969 95.96875 C 33.296875 98.46875 31.859375 101.003906 30.484375 103.570312 C 29.113281 106.140625 27.804688 108.742188 26.558594 111.378906 C 25.3125 114.011719 24.132812 116.675781 23.015625 119.367188 C 21.902344 122.058594 20.851562 124.773438 19.871094 127.519531 C 18.890625 130.261719 17.976562 133.027344 17.128906 135.816406 C 16.285156 138.605469 15.507812 141.410156 14.800781 144.238281 C 14.089844 147.0625 13.453125 149.90625 12.886719 152.761719 C 12.316406 155.621094 11.820312 158.492188 11.390625 161.371094 C 10.964844 164.253906 10.605469 167.144531 10.320312 170.046875 C 10.035156 172.945312 9.820312 175.851562 9.679688 178.761719 C 9.535156 181.671875 9.464844 184.582031 9.464844 187.496094 C 9.464844 190.410156 9.535156 193.320312 9.679688 196.230469 C 9.820312 199.140625 10.035156 202.046875 10.320312 204.945312 C 10.605469 207.84375 10.964844 210.734375 11.390625 213.617188 C 11.820312 216.5 12.316406 219.371094 12.886719 222.226562 C 13.453125 225.085938 14.089844 227.925781 14.800781 230.753906 C 15.507812 233.578125 16.285156 236.386719 17.128906 239.175781 C 17.976562 241.964844 18.890625 244.730469 19.871094 247.472656 C 20.851562 250.214844 21.902344 252.933594 23.015625 255.625 C 24.132812 258.316406 25.3125 260.980469 26.558594 263.613281 C 27.804688 266.246094 29.113281 268.847656 30.484375 271.417969 C 31.859375 273.988281 33.296875 276.523438 34.792969 279.023438 C 36.289062 281.519531 37.847656 283.980469 39.46875 286.40625 C 41.085938 288.828125 42.765625 291.207031 44.5 293.546875 C 46.234375 295.890625 48.027344 298.183594 49.875 300.4375 C 51.722656 302.691406 53.625 304.894531 55.582031 307.054688 C 57.539062 309.210938 59.546875 311.324219 61.609375 313.382812 C 63.667969 315.441406 65.777344 317.453125 67.9375 319.40625 C 70.097656 321.363281 72.300781 323.265625 74.554688 325.117188 C 76.804688 326.964844 79.101562 328.757812 81.441406 330.492188 C 83.78125 332.226562 86.164062 333.90625 88.585938 335.523438 C 91.007812 337.140625 93.46875 338.699219 95.96875 340.199219 C 98.46875 341.695312 101.003906 343.132812 103.570312 344.503906 C 106.140625 345.878906 108.742188 347.1875 111.378906 348.433594 C 114.011719 349.679688 116.675781 350.859375 119.367188 351.976562 C 122.058594 353.089844 124.773438 354.136719 127.519531 355.121094 C 130.261719 356.101562 133.027344 357.015625 135.816406 357.859375 C 138.605469 358.707031 141.410156 359.484375 144.238281 360.191406 C 147.0625 360.898438 149.90625 361.539062 152.761719 362.105469 C 155.621094 362.675781 158.492188 363.171875 161.371094 363.601562 C 164.253906 364.027344 167.144531 364.382812 170.046875 364.667969 C 172.945312 364.953125 175.851562 365.167969 178.761719 365.3125 C 181.671875 365.457031 184.582031 365.527344 187.496094 365.527344 C 190.410156 365.527344 193.320312 365.457031 196.230469 365.3125 C 199.140625 365.167969 202.046875 364.953125 204.945312 364.667969 C 207.84375 364.382812 210.734375 364.027344 213.617188 363.601562 C 216.5 363.171875 219.371094 362.675781 222.226562 362.105469 C 225.085938 361.539062 227.925781 360.898438 230.753906 360.191406 C 233.578125 359.484375 236.386719 358.707031 239.175781 357.859375 C 241.964844 357.015625 244.730469 356.101562 247.472656 355.121094 C 250.214844 354.136719 252.933594 353.089844 255.625 351.976562 C 258.316406 350.859375 260.980469 349.679688 263.613281 348.433594 C 266.246094 347.1875 268.847656 345.878906 271.417969 344.503906 C 273.988281 343.132812 276.523438 341.695312 279.023438 340.199219 C 281.519531 338.699219 283.980469 337.140625 286.40625 335.523438 C 288.828125 333.90625 291.207031 332.226562 293.546875 330.492188 C 295.890625 328.757812 298.183594 326.964844 300.4375 325.117188 C 302.691406 323.265625 304.894531 321.363281 307.054688 319.40625 C 309.210938 317.453125 311.324219 315.441406 313.382812 313.382812 C 315.441406 311.324219 317.453125 309.210938 319.40625 307.054688 C 321.363281 304.894531 323.265625 302.691406 325.117188 300.4375 C 326.964844 298.183594 328.757812 295.890625 330.492188 293.546875 C 332.226562 291.207031 333.90625 288.828125 335.523438 286.40625 C 337.140625 283.980469 338.699219 281.519531 340.199219 279.023438 C 341.695312 276.523438 343.132812 273.988281 344.503906 271.417969 C 345.878906 268.847656 347.1875 266.246094 348.433594 263.613281 C 349.679688 260.980469 350.859375 258.316406 351.976562 255.625 C 353.089844 252.933594 354.136719 250.214844 355.121094 247.472656 C 356.101562 244.730469 357.015625 241.964844 357.859375 239.175781 C 358.707031 236.386719 359.484375 233.578125 360.191406 230.753906 C 360.898438 227.925781 361.539062 225.085938 362.105469 222.226562 C 362.675781 219.371094 363.171875 216.5 363.601562 213.617188 C 364.027344 210.734375 364.382812 207.84375 364.667969 204.945312 C 364.953125 202.046875 365.167969 199.140625 365.3125 196.230469 C 365.457031 193.320312 365.527344 190.410156 365.527344 187.496094 C 365.523438 184.582031 365.445312 181.671875 365.296875 178.765625 C 365.152344 175.855469 364.933594 172.953125 364.644531 170.054688 C 364.351562 167.15625 363.992188 164.269531 363.5625 161.386719 C 363.128906 158.507812 362.628906 155.640625 362.058594 152.785156 C 361.484375 149.929688 360.84375 147.089844 360.132812 144.265625 C 359.421875 141.441406 358.644531 138.632812 357.796875 135.847656 C 356.945312 133.0625 356.03125 130.296875 355.046875 127.558594 C 354.0625 124.816406 353.011719 122.101562 351.898438 119.410156 C 350.78125 116.722656 349.597656 114.0625 348.351562 111.429688 C 347.105469 108.796875 345.792969 106.199219 344.417969 103.628906 C 343.042969 101.0625 341.609375 98.53125 340.109375 96.03125 C 338.609375 93.535156 337.050781 91.078125 335.433594 88.65625 C 333.8125 86.234375 332.136719 83.855469 330.402344 81.515625 C 328.664062 79.179688 326.875 76.882812 325.027344 74.632812 C 323.179688 72.382812 321.277344 70.175781 319.320312 68.019531 C 317.363281 65.863281 315.355469 63.753906 313.296875 61.695312 C 311.238281 59.636719 309.128906 57.628906 306.972656 55.671875 C 304.8125 53.714844 302.609375 51.8125 300.359375 49.964844 C 298.109375 48.117188 295.8125 46.324219 293.472656 44.589844 C 291.136719 42.855469 288.757812 41.175781 286.335938 39.558594 C 283.914062 37.9375 281.457031 36.378906 278.957031 34.882812 C 276.460938 33.382812 273.929688 31.945312 271.359375 30.570312 C 268.792969 29.199219 266.195312 27.886719 263.5625 26.640625 C 260.929688 25.394531 258.269531 24.210938 255.578125 23.09375 C 252.890625 21.976562 250.175781 20.925781 247.433594 19.945312 C 244.691406 18.960938 241.929688 18.042969 239.140625 17.195312 C 236.355469 16.347656 233.550781 15.566406 230.726562 14.855469 C 227.902344 14.144531 225.0625 13.503906 222.207031 12.933594 C 219.351562 12.363281 216.484375 11.859375 213.605469 11.429688 C 210.722656 11 207.835938 10.636719 204.9375 10.347656 C 202.039062 10.058594 199.136719 9.839844 196.226562 9.691406 C 193.316406 9.546875 190.40625 9.46875 187.496094 9.464844 Z M 258.707031 205.296875 L 205.296875 205.296875 L 205.296875 258.707031 C 205.296875 259.292969 205.269531 259.871094 205.214844 260.453125 C 205.15625 261.035156 205.070312 261.609375 204.957031 262.179688 C 204.84375 262.753906 204.703125 263.316406 204.53125 263.875 C 204.363281 264.433594 204.167969 264.980469 203.945312 265.519531 C 203.71875 266.058594 203.472656 266.585938 203.195312 267.101562 C 202.921875 267.613281 202.621094 268.113281 202.296875 268.597656 C 201.972656 269.082031 201.628906 269.550781 201.257812 270.003906 C 200.886719 270.453125 200.496094 270.882812 200.085938 271.296875 C 199.671875 271.710938 199.242188 272.101562 198.789062 272.46875 C 198.339844 272.839844 197.871094 273.1875 197.386719 273.511719 C 196.902344 273.835938 196.402344 274.132812 195.886719 274.410156 C 195.375 274.683594 194.847656 274.933594 194.308594 275.15625 C 193.769531 275.378906 193.222656 275.574219 192.664062 275.746094 C 192.105469 275.914062 191.539062 276.054688 190.96875 276.167969 C 190.398438 276.28125 189.820312 276.367188 189.242188 276.425781 C 188.660156 276.484375 188.078125 276.511719 187.496094 276.511719 C 186.914062 276.511719 186.332031 276.484375 185.75 276.425781 C 185.171875 276.367188 184.59375 276.28125 184.023438 276.167969 C 183.449219 276.054688 182.886719 275.914062 182.328125 275.746094 C 181.769531 275.574219 181.222656 275.378906 180.683594 275.15625 C 180.144531 274.933594 179.617188 274.683594 179.101562 274.410156 C 178.589844 274.132812 178.089844 273.835938 177.605469 273.511719 C 177.121094 273.1875 176.652344 272.839844 176.203125 272.46875 C 175.75 272.101562 175.320312 271.710938 174.90625 271.296875 C 174.496094 270.882812 174.101562 270.453125 173.734375 270.003906 C 173.363281 269.550781 173.015625 269.082031 172.691406 268.597656 C 172.367188 268.113281 172.070312 267.613281 171.792969 267.101562 C 171.519531 266.585938 171.269531 266.058594 171.046875 265.519531 C 170.824219 264.980469 170.628906 264.433594 170.460938 263.875 C 170.289062 263.316406 170.148438 262.753906 170.035156 262.179688 C 169.921875 261.609375 169.835938 261.035156 169.777344 260.453125 C 169.722656 259.871094 169.691406 259.292969 169.691406 258.707031 L 169.691406 205.296875 L 116.28125 205.296875 C 115.699219 205.296875 115.117188 205.269531 114.539062 205.214844 C 113.957031 205.15625 113.382812 205.070312 112.808594 204.957031 C 112.238281 204.84375 111.671875 204.703125 111.113281 204.53125 C 110.558594 204.363281 110.007812 204.167969 109.46875 203.945312 C 108.929688 203.71875 108.40625 203.472656 107.890625 203.195312 C 107.375 202.921875 106.875 202.621094 106.390625 202.296875 C 105.90625 201.972656 105.441406 201.628906 104.988281 201.257812 C 104.539062 200.886719 104.105469 200.496094 103.695312 200.085938 C 103.28125 199.671875 102.890625 199.242188 102.519531 198.789062 C 102.152344 198.339844 101.804688 197.871094 101.480469 197.386719 C 101.15625 196.902344 100.855469 196.402344 100.582031 195.886719 C 100.308594 195.375 100.058594 194.847656 99.835938 194.308594 C 99.613281 193.769531 99.414062 193.222656 99.246094 192.664062 C 99.078125 192.105469 98.9375 191.539062 98.820312 190.96875 C 98.707031 190.398438 98.621094 189.820312 98.566406 189.242188 C 98.507812 188.660156 98.480469 188.078125 98.480469 187.496094 C 98.480469 186.914062 98.507812 186.332031 98.566406 185.75 C 98.621094 185.171875 98.707031 184.59375 98.820312 184.023438 C 98.9375 183.449219 99.078125 182.886719 99.246094 182.328125 C 99.414062 181.769531 99.613281 181.222656 99.835938 180.683594 C 100.058594 180.144531 100.308594 179.617188 100.582031 179.101562 C 100.855469 178.589844 101.15625 178.089844 101.480469 177.605469 C 101.804688 177.121094 102.152344 176.652344 102.519531 176.203125 C 102.890625 175.75 103.28125 175.320312 103.695312 174.90625 C 104.105469 174.496094 104.539062 174.101562 104.988281 173.734375 C 105.441406 173.363281 105.90625 173.015625 106.390625 172.691406 C 106.875 172.367188 107.375 172.070312 107.890625 171.792969 C 108.40625 171.519531 108.929688 171.269531 109.46875 171.046875 C 110.007812 170.824219 110.558594 170.628906 111.113281 170.460938 C 111.671875 170.289062 112.238281 170.148438 112.808594 170.035156 C 113.382812 169.921875 113.957031 169.835938 114.539062 169.777344 C 115.117188 169.722656 115.699219 169.691406 116.28125 169.691406 L 169.691406 169.691406 L 169.691406 116.28125 C 169.691406 115.699219 169.722656 115.117188 169.777344 114.539062 C 169.835938 113.957031 169.921875 113.382812 170.035156 112.808594 C 170.148438 112.238281 170.289062 111.671875 170.460938 111.113281 C 170.628906 110.558594 170.824219 110.007812 171.046875 109.46875 C 171.269531 108.929688 171.519531 108.40625 171.792969 107.890625 C 172.070312 107.375 172.367188 106.875 172.691406 106.390625 C 173.015625 105.90625 173.363281 105.441406 173.734375 104.988281 C 174.101562 104.539062 174.496094 104.105469 174.90625 103.695312 C 175.320312 103.28125 175.75 102.890625 176.203125 102.519531 C 176.652344 102.152344 177.121094 101.804688 177.605469 101.480469 C 178.089844 101.15625 178.589844 100.855469 179.101562 100.582031 C 179.617188 100.308594 180.144531 100.058594 180.683594 99.835938 C 181.222656 99.613281 181.769531 99.414062 182.328125 99.246094 C 182.886719 99.078125 183.449219 98.9375 184.023438 98.820312 C 184.59375 98.707031 185.171875 98.621094 185.75 98.566406 C 186.332031 98.507812 186.914062 98.480469 187.496094 98.480469 C 188.078125 98.480469 188.660156 98.507812 189.242188 98.566406 C 189.820312 98.621094 190.398438 98.707031 190.96875 98.820312 C 191.539062 98.9375 192.105469 99.078125 192.664062 99.246094 C 193.222656 99.414062 193.769531 99.613281 194.308594 99.835938 C 194.847656 100.058594 195.375 100.308594 195.886719 100.582031 C 196.402344 100.855469 196.902344 101.15625 197.386719 101.480469 C 197.871094 101.804688 198.339844 102.152344 198.789062 102.519531 C 199.242188 102.890625 199.671875 103.28125 200.085938 103.695312 C 200.496094 104.105469 200.886719 104.539062 201.257812 104.988281 C 201.628906 105.441406 201.972656 105.90625 202.296875 106.390625 C 202.621094 106.875 202.921875 107.375 203.195312 107.890625 C 203.472656 108.40625 203.71875 108.929688 203.945312 109.46875 C 204.167969 110.007812 204.363281 110.558594 204.53125 111.113281 C 204.703125 111.671875 204.84375 112.238281 204.957031 112.808594 C 205.070312 113.382812 205.15625 113.957031 205.214844 114.539062 C 205.269531 115.117188 205.296875 115.699219 205.296875 116.28125 L 205.296875 169.691406 L 258.707031 169.691406 C 259.292969 169.691406 259.871094 169.722656 260.453125 169.777344 C 261.035156 169.835938 261.609375 169.921875 262.179688 170.035156 C 262.753906 170.148438 263.316406 170.289062 263.875 170.460938 C 264.433594 170.628906 264.980469 170.824219 265.519531 171.046875 C 266.058594 171.269531 266.585938 171.519531 267.101562 171.792969 C 267.613281 172.070312 268.113281 172.367188 268.597656 172.691406 C 269.082031 173.015625 269.550781 173.363281 270.003906 173.734375 C 270.453125 174.101562 270.882812 174.496094 271.296875 174.90625 C 271.710938 175.320312 272.101562 175.75 272.46875 176.203125 C 272.839844 176.652344 273.1875 177.121094 273.511719 177.605469 C 273.835938 178.089844 274.132812 178.589844 274.410156 179.101562 C 274.683594 179.617188 274.933594 180.144531 275.15625 180.683594 C 275.378906 181.222656 275.574219 181.769531 275.746094 182.328125 C 275.914062 182.886719 276.054688 183.449219 276.167969 184.023438 C 276.28125 184.59375 276.367188 185.171875 276.425781 185.75 C 276.484375 186.332031 276.511719 186.914062 276.511719 187.496094 C 276.511719 188.078125 276.484375 188.660156 276.425781 189.242188 C 276.367188 189.820312 276.28125 190.398438 276.167969 190.96875 C 276.054688 191.539062 275.914062 192.105469 275.746094 192.664062 C 275.574219 193.222656 275.378906 193.769531 275.15625 194.308594 C 274.933594 194.847656 274.683594 195.375 274.410156 195.886719 C 274.132812 196.402344 273.835938 196.902344 273.511719 197.386719 C 273.1875 197.871094 272.839844 198.339844 272.46875 198.789062 C 272.101562 199.242188 271.710938 199.671875 271.296875 200.085938 C 270.882812 200.496094 270.453125 200.886719 270.003906 201.257812 C 269.550781 201.628906 269.082031 201.972656 268.597656 202.296875 C 268.113281 202.621094 267.613281 202.921875 267.101562 203.195312 C 266.585938 203.472656 266.058594 203.71875 265.519531 203.945312 C 264.980469 204.167969 264.433594 204.363281 263.875 204.53125 C 263.316406 204.703125 262.753906 204.84375 262.179688 204.957031 C 261.609375 205.070312 261.035156 205.15625 260.453125 205.214844 C 259.871094 205.269531 259.292969 205.296875 258.707031 205.296875 Z M 258.707031 205.296875 " fill-opacity="1" fill-rule="nonzero"/></g></svg>