<svg xmlns="http://www.w3.org/2000/svg" xmlns:xlink="http://www.w3.org/1999/xlink" width="500" zoomAndPan="magnify" viewBox="0 0 375 374.999991" height="500" preserveAspectRatio="xMidYMid meet" version="1.0"><defs><clipPath id="92aca214d9"><path d="M 182.28125 -150 L 227.890625 -114.019531 L 282.382812 -134.144531 L 314.636719 -85.832031 L 372.683594 -88.136719 L 388.429688 -32.21875 L 444.347656 -16.472656 L 442.042969 41.574219 L 490.355469 73.828125 L 470.230469 128.324219 L 506.210938 173.929688 L 470.230469 219.535156 L 490.355469 274.027344 L 442.042969 306.28125 L 444.347656 364.328125 L 388.429688 380.074219 L 372.683594 435.992188 L 314.636719 433.6875 L 282.382812 482.003906 L 227.890625 461.875 L 182.28125 497.855469 L 136.675781 461.875 L 82.183594 482.003906 L 49.929688 433.6875 L -8.117188 435.992188 L -23.863281 380.074219 L -79.78125 364.328125 L -77.476562 306.28125 L -125.792969 274.027344 L -105.664062 219.535156 L -141.644531 173.929688 L -105.664062 128.324219 L -125.792969 73.828125 L -77.476562 41.574219 L -79.78125 -16.472656 L -23.863281 -32.21875 L -8.117188 -88.136719 L 49.929688 -85.832031 L 82.183594 -134.144531 L 136.675781 -114.019531 Z M 182.28125 -150 " clip-rule="nonzero"/></clipPath><clipPath id="7e35da6c56"><path d="M 29.144531 6.523438 L 345.644531 6.523438 L 345.644531 97 L 29.144531 97 Z M 29.144531 6.523438 " clip-rule="nonzero"/></clipPath><clipPath id="e046bdd056"><path d="M 51 119 L 324 119 L 324 368.773438 L 51 368.773438 Z M 51 119 " clip-rule="nonzero"/></clipPath></defs><rect x="-37.5" width="450" fill="#ffffff" y="-37.499999" height="449.999989" fill-opacity="1"/><rect x="-37.5" width="450" fill="#ffffff" y="-37.499999" height="449.999989" fill-opacity="1"/><g clip-path="url(#92aca214d9)"><rect x="-37.5" width="450" fill="#f5e9e0" y="-37.499999" height="449.999989" fill-opacity="1"/></g><g clip-path="url(#7e35da6c56)"><path fill="#925833" d="M 334.535156 50.917969 L 255.359375 50.917969 L 255.359375 17.835938 C 255.359375 11.613281 250.269531 6.523438 244.046875 6.523438 L 130.941406 6.523438 C 124.722656 6.523438 119.632812 11.613281 119.632812 17.835938 L 119.632812 50.917969 L 40.457031 50.917969 C 34.234375 50.917969 29.144531 56.007812 29.144531 62.230469 L 29.144531 84.851562 C 29.144531 91.074219 34.234375 96.164062 40.457031 96.164062 L 334.535156 96.164062 C 340.753906 96.164062 345.84375 91.074219 345.84375 84.851562 L 345.84375 62.230469 C 345.84375 56.007812 340.753906 50.917969 334.535156 50.917969 Z M 334.535156 50.917969 " fill-opacity="1" fill-rule="nonzero"/></g><g clip-path="url(#e046bdd056)"><path fill="#925833" d="M 78.914062 358.570312 C 79.476562 364.226562 84.285156 368.46875 90.222656 368.46875 L 285.050781 368.46875 C 290.707031 368.46875 295.511719 364.226562 296.359375 358.570312 L 323.507812 119.914062 L 51.765625 119.914062 Z M 232.738281 321.808594 L 252.53125 163.742188 C 253.378906 157.523438 259.035156 153.28125 265.257812 153.847656 C 271.476562 154.695312 275.71875 160.351562 275.152344 166.570312 L 255.359375 324.636719 C 254.511719 330.292969 249.703125 334.535156 244.046875 334.535156 C 243.484375 334.535156 243.199219 334.535156 242.632812 334.535156 C 236.414062 333.6875 232.171875 328.03125 232.738281 321.808594 Z M 176.183594 165.15625 C 176.183594 158.9375 181.273438 153.847656 187.496094 153.847656 C 193.714844 153.847656 198.804688 158.9375 198.804688 165.15625 L 198.804688 323.222656 C 198.804688 329.445312 193.714844 334.535156 187.496094 334.535156 C 181.273438 334.535156 176.183594 329.445312 176.183594 323.222656 Z M 109.734375 153.847656 C 115.953125 153 121.609375 157.523438 122.457031 163.742188 L 142.253906 321.808594 C 143.101562 328.03125 138.578125 333.6875 132.355469 334.535156 C 131.789062 334.535156 131.507812 334.535156 130.941406 334.535156 C 125.285156 334.535156 120.480469 330.292969 119.632812 324.636719 L 99.835938 166.570312 C 99.273438 160.351562 103.511719 154.695312 109.734375 153.847656 Z M 109.734375 153.847656 " fill-opacity="1" fill-rule="nonzero"/></g></svg>